<mxfile host="app.diagrams.net" agent="Mozilla/5.0 (Windows NT 10.0; Win64; x64) AppleWebKit/537.36 (KHTML, like Gecko) Chrome/140.0.0.0 Safari/537.36" version="28.2.5">
  <diagram name="Page-1" id="h0GyoqgkwWXZcMFIrzHW">
    <mxGraphModel dx="872" dy="473" grid="1" gridSize="10" guides="1" tooltips="1" connect="1" arrows="1" fold="1" page="1" pageScale="1" pageWidth="850" pageHeight="1100" math="0" shadow="0">
      <root>
        <mxCell id="0" />
        <mxCell id="1" parent="0" />
        <mxCell id="ouct1il5s7IeICpuFlwq-1" value="" style="edgeStyle=orthogonalEdgeStyle;rounded=0;orthogonalLoop=1;jettySize=auto;html=1;" edge="1" parent="1" source="ouct1il5s7IeICpuFlwq-4" target="ouct1il5s7IeICpuFlwq-5">
          <mxGeometry relative="1" as="geometry" />
        </mxCell>
        <mxCell id="ouct1il5s7IeICpuFlwq-2" style="edgeStyle=orthogonalEdgeStyle;rounded=0;orthogonalLoop=1;jettySize=auto;html=1;exitX=0.08;exitY=0.05;exitDx=0;exitDy=0;exitPerimeter=0;" edge="1" parent="1" source="ouct1il5s7IeICpuFlwq-4" target="ouct1il5s7IeICpuFlwq-6">
          <mxGeometry relative="1" as="geometry" />
        </mxCell>
        <mxCell id="ouct1il5s7IeICpuFlwq-3" style="edgeStyle=orthogonalEdgeStyle;rounded=0;orthogonalLoop=1;jettySize=auto;html=1;exitX=1;exitY=0;exitDx=0;exitDy=0;exitPerimeter=0;" edge="1" parent="1" source="ouct1il5s7IeICpuFlwq-4" target="ouct1il5s7IeICpuFlwq-8">
          <mxGeometry relative="1" as="geometry" />
        </mxCell>
        <mxCell id="ouct1il5s7IeICpuFlwq-4" value="" style="shape=mxgraph.cisco.switches.layer_3_switch;sketch=0;html=1;pointerEvents=1;dashed=0;fillColor=#036897;strokeColor=#ffffff;strokeWidth=2;verticalLabelPosition=bottom;verticalAlign=top;align=center;outlineConnect=0;" vertex="1" parent="1">
          <mxGeometry x="148" y="310" width="74" height="64" as="geometry" />
        </mxCell>
        <mxCell id="ouct1il5s7IeICpuFlwq-5" value="" style="shape=mxgraph.cisco.computers_and_peripherals.pc;sketch=0;html=1;pointerEvents=1;dashed=0;fillColor=#036897;strokeColor=#ffffff;strokeWidth=2;verticalLabelPosition=bottom;verticalAlign=top;align=center;outlineConnect=0;" vertex="1" parent="1">
          <mxGeometry x="208" y="450" width="78" height="70" as="geometry" />
        </mxCell>
        <mxCell id="ouct1il5s7IeICpuFlwq-6" value="" style="shape=mxgraph.cisco.computers_and_peripherals.pc;sketch=0;html=1;pointerEvents=1;dashed=0;fillColor=#036897;strokeColor=#ffffff;strokeWidth=2;verticalLabelPosition=bottom;verticalAlign=top;align=center;outlineConnect=0;" vertex="1" parent="1">
          <mxGeometry x="70" y="450" width="78" height="70" as="geometry" />
        </mxCell>
        <mxCell id="ouct1il5s7IeICpuFlwq-7" value="" style="shape=mxgraph.cisco.computers_and_peripherals.pc;sketch=0;html=1;pointerEvents=1;dashed=0;fillColor=#036897;strokeColor=#ffffff;strokeWidth=2;verticalLabelPosition=bottom;verticalAlign=top;align=center;outlineConnect=0;" vertex="1" parent="1">
          <mxGeometry x="70" y="190" width="78" height="70" as="geometry" />
        </mxCell>
        <mxCell id="ouct1il5s7IeICpuFlwq-8" value="" style="shape=mxgraph.cisco.computers_and_peripherals.pc;sketch=0;html=1;pointerEvents=1;dashed=0;fillColor=#036897;strokeColor=#ffffff;strokeWidth=2;verticalLabelPosition=bottom;verticalAlign=top;align=center;outlineConnect=0;" vertex="1" parent="1">
          <mxGeometry x="222" y="180" width="78" height="70" as="geometry" />
        </mxCell>
        <mxCell id="ouct1il5s7IeICpuFlwq-9" style="edgeStyle=orthogonalEdgeStyle;rounded=0;orthogonalLoop=1;jettySize=auto;html=1;entryX=0.5;entryY=1;entryDx=0;entryDy=0;entryPerimeter=0;" edge="1" parent="1" source="ouct1il5s7IeICpuFlwq-4" target="ouct1il5s7IeICpuFlwq-7">
          <mxGeometry relative="1" as="geometry" />
        </mxCell>
        <mxCell id="ouct1il5s7IeICpuFlwq-10" value="" style="edgeStyle=orthogonalEdgeStyle;rounded=0;orthogonalLoop=1;jettySize=auto;html=1;" edge="1" parent="1" source="ouct1il5s7IeICpuFlwq-13" target="ouct1il5s7IeICpuFlwq-14">
          <mxGeometry relative="1" as="geometry" />
        </mxCell>
        <mxCell id="ouct1il5s7IeICpuFlwq-11" style="edgeStyle=orthogonalEdgeStyle;rounded=0;orthogonalLoop=1;jettySize=auto;html=1;exitX=0.08;exitY=0.05;exitDx=0;exitDy=0;exitPerimeter=0;" edge="1" parent="1" source="ouct1il5s7IeICpuFlwq-13" target="ouct1il5s7IeICpuFlwq-15">
          <mxGeometry relative="1" as="geometry" />
        </mxCell>
        <mxCell id="ouct1il5s7IeICpuFlwq-12" style="edgeStyle=orthogonalEdgeStyle;rounded=0;orthogonalLoop=1;jettySize=auto;html=1;exitX=1;exitY=0;exitDx=0;exitDy=0;exitPerimeter=0;" edge="1" parent="1" source="ouct1il5s7IeICpuFlwq-13" target="ouct1il5s7IeICpuFlwq-17">
          <mxGeometry relative="1" as="geometry" />
        </mxCell>
        <mxCell id="ouct1il5s7IeICpuFlwq-13" value="" style="shape=mxgraph.cisco.switches.layer_3_switch;sketch=0;html=1;pointerEvents=1;dashed=0;fillColor=#036897;strokeColor=#ffffff;strokeWidth=2;verticalLabelPosition=bottom;verticalAlign=top;align=center;outlineConnect=0;" vertex="1" parent="1">
          <mxGeometry x="628" y="310" width="74" height="64" as="geometry" />
        </mxCell>
        <mxCell id="ouct1il5s7IeICpuFlwq-14" value="" style="shape=mxgraph.cisco.computers_and_peripherals.pc;sketch=0;html=1;pointerEvents=1;dashed=0;fillColor=#036897;strokeColor=#ffffff;strokeWidth=2;verticalLabelPosition=bottom;verticalAlign=top;align=center;outlineConnect=0;" vertex="1" parent="1">
          <mxGeometry x="688" y="450" width="78" height="70" as="geometry" />
        </mxCell>
        <mxCell id="ouct1il5s7IeICpuFlwq-15" value="" style="shape=mxgraph.cisco.computers_and_peripherals.pc;sketch=0;html=1;pointerEvents=1;dashed=0;fillColor=#036897;strokeColor=#ffffff;strokeWidth=2;verticalLabelPosition=bottom;verticalAlign=top;align=center;outlineConnect=0;" vertex="1" parent="1">
          <mxGeometry x="550" y="450" width="78" height="70" as="geometry" />
        </mxCell>
        <mxCell id="ouct1il5s7IeICpuFlwq-16" value="" style="shape=mxgraph.cisco.computers_and_peripherals.pc;sketch=0;html=1;pointerEvents=1;dashed=0;fillColor=#036897;strokeColor=#ffffff;strokeWidth=2;verticalLabelPosition=bottom;verticalAlign=top;align=center;outlineConnect=0;" vertex="1" parent="1">
          <mxGeometry x="550" y="190" width="78" height="70" as="geometry" />
        </mxCell>
        <mxCell id="ouct1il5s7IeICpuFlwq-17" value="" style="shape=mxgraph.cisco.computers_and_peripherals.pc;sketch=0;html=1;pointerEvents=1;dashed=0;fillColor=#036897;strokeColor=#ffffff;strokeWidth=2;verticalLabelPosition=bottom;verticalAlign=top;align=center;outlineConnect=0;" vertex="1" parent="1">
          <mxGeometry x="702" y="180" width="78" height="70" as="geometry" />
        </mxCell>
        <mxCell id="ouct1il5s7IeICpuFlwq-18" style="edgeStyle=orthogonalEdgeStyle;rounded=0;orthogonalLoop=1;jettySize=auto;html=1;entryX=0.5;entryY=1;entryDx=0;entryDy=0;entryPerimeter=0;" edge="1" parent="1" source="ouct1il5s7IeICpuFlwq-13" target="ouct1il5s7IeICpuFlwq-16">
          <mxGeometry relative="1" as="geometry" />
        </mxCell>
        <mxCell id="ouct1il5s7IeICpuFlwq-20" style="edgeStyle=orthogonalEdgeStyle;rounded=0;orthogonalLoop=1;jettySize=auto;html=1;" edge="1" parent="1" source="ouct1il5s7IeICpuFlwq-19" target="ouct1il5s7IeICpuFlwq-13">
          <mxGeometry relative="1" as="geometry" />
        </mxCell>
        <mxCell id="ouct1il5s7IeICpuFlwq-21" style="edgeStyle=orthogonalEdgeStyle;rounded=0;orthogonalLoop=1;jettySize=auto;html=1;" edge="1" parent="1" source="ouct1il5s7IeICpuFlwq-19" target="ouct1il5s7IeICpuFlwq-4">
          <mxGeometry relative="1" as="geometry" />
        </mxCell>
        <mxCell id="ouct1il5s7IeICpuFlwq-19" value="" style="shape=mxgraph.cisco.switches.layer_3_switch;sketch=0;html=1;pointerEvents=1;dashed=0;fillColor=#036897;strokeColor=#ffffff;strokeWidth=2;verticalLabelPosition=bottom;verticalAlign=top;align=center;outlineConnect=0;" vertex="1" parent="1">
          <mxGeometry x="370" y="320" width="74" height="64" as="geometry" />
        </mxCell>
      </root>
    </mxGraphModel>
  </diagram>
</mxfile>
